<mxfile host="app.diagrams.net" modified="2023-10-23T17:58:55.918Z" agent="Mozilla/5.0 (Windows NT 10.0; Win64; x64) AppleWebKit/537.36 (KHTML, like Gecko) Chrome/118.0.0.0 Safari/537.36" etag="I-tHGsj7F0k1QyDxmXHy" version="22.0.6" type="device">
  <diagram name="Page-1" id="c37626ed-c26b-45fb-9056-f9ebc6bb27b6">
    <mxGraphModel dx="1491" dy="1512" grid="1" gridSize="10" guides="1" tooltips="1" connect="1" arrows="1" fold="1" page="1" pageScale="1" pageWidth="1100" pageHeight="850" background="none" math="0" shadow="0">
      <root>
        <mxCell id="0" />
        <mxCell id="1" parent="0" />
        <mxCell id="6Go6Wf6BIz4FnHkbHVNA-1" value="" style="whiteSpace=wrap;html=1;aspect=fixed;verticalAlign=middle;" vertex="1" parent="1">
          <mxGeometry x="140" y="-30" width="660" height="660" as="geometry" />
        </mxCell>
        <mxCell id="6Go6Wf6BIz4FnHkbHVNA-2" value="" style="shape=mxgraph.cisco.routers.router;sketch=0;html=1;pointerEvents=1;dashed=0;fillColor=#036897;strokeColor=#ffffff;strokeWidth=2;verticalLabelPosition=bottom;verticalAlign=top;align=center;outlineConnect=0;" vertex="1" parent="1">
          <mxGeometry x="320" y="425" width="78" height="53" as="geometry" />
        </mxCell>
        <mxCell id="6Go6Wf6BIz4FnHkbHVNA-3" value="" style="shape=mxgraph.cisco.routers.router;sketch=0;html=1;pointerEvents=1;dashed=0;fillColor=#036897;strokeColor=#ffffff;strokeWidth=2;verticalLabelPosition=bottom;verticalAlign=top;align=center;outlineConnect=0;" vertex="1" parent="1">
          <mxGeometry x="420" y="260" width="78" height="53" as="geometry" />
        </mxCell>
        <mxCell id="6Go6Wf6BIz4FnHkbHVNA-4" value="" style="shape=mxgraph.cisco.routers.router;sketch=0;html=1;pointerEvents=1;dashed=0;fillColor=#036897;strokeColor=#ffffff;strokeWidth=2;verticalLabelPosition=bottom;verticalAlign=top;align=center;outlineConnect=0;" vertex="1" parent="1">
          <mxGeometry x="520" y="425" width="78" height="53" as="geometry" />
        </mxCell>
        <mxCell id="6Go6Wf6BIz4FnHkbHVNA-9" style="edgeStyle=orthogonalEdgeStyle;rounded=0;orthogonalLoop=1;jettySize=auto;html=1;exitX=0.5;exitY=0;exitDx=0;exitDy=0;exitPerimeter=0;entryX=0.88;entryY=0.9;entryDx=0;entryDy=0;entryPerimeter=0;startArrow=classic;startFill=1;" edge="1" parent="1" source="6Go6Wf6BIz4FnHkbHVNA-4" target="6Go6Wf6BIz4FnHkbHVNA-3">
          <mxGeometry relative="1" as="geometry" />
        </mxCell>
        <mxCell id="6Go6Wf6BIz4FnHkbHVNA-10" style="edgeStyle=orthogonalEdgeStyle;rounded=0;orthogonalLoop=1;jettySize=auto;html=1;exitX=0.5;exitY=0;exitDx=0;exitDy=0;exitPerimeter=0;entryX=0.12;entryY=0.9;entryDx=0;entryDy=0;entryPerimeter=0;startArrow=classic;startFill=1;" edge="1" parent="1" source="6Go6Wf6BIz4FnHkbHVNA-2" target="6Go6Wf6BIz4FnHkbHVNA-3">
          <mxGeometry relative="1" as="geometry" />
        </mxCell>
        <mxCell id="6Go6Wf6BIz4FnHkbHVNA-13" style="edgeStyle=orthogonalEdgeStyle;rounded=0;orthogonalLoop=1;jettySize=auto;html=1;exitX=0.5;exitY=0;exitDx=0;exitDy=0;exitPerimeter=0;entryX=0.5;entryY=1;entryDx=0;entryDy=0;entryPerimeter=0;startArrow=classic;startFill=1;" edge="1" parent="1" target="6Go6Wf6BIz4FnHkbHVNA-2">
          <mxGeometry relative="1" as="geometry">
            <mxPoint x="359" y="540" as="sourcePoint" />
          </mxGeometry>
        </mxCell>
        <mxCell id="6Go6Wf6BIz4FnHkbHVNA-14" style="edgeStyle=orthogonalEdgeStyle;rounded=0;orthogonalLoop=1;jettySize=auto;html=1;exitX=0.5;exitY=0;exitDx=0;exitDy=0;exitPerimeter=0;entryX=0.5;entryY=1;entryDx=0;entryDy=0;entryPerimeter=0;startArrow=classic;startFill=1;" edge="1" parent="1" target="6Go6Wf6BIz4FnHkbHVNA-4">
          <mxGeometry relative="1" as="geometry">
            <mxPoint x="558.9999999999998" y="540" as="sourcePoint" />
          </mxGeometry>
        </mxCell>
        <mxCell id="6Go6Wf6BIz4FnHkbHVNA-15" value="" style="shape=mxgraph.cisco.switches.layer_2_remote_switch;sketch=0;html=1;pointerEvents=1;dashed=0;fillColor=#036897;strokeColor=#ffffff;strokeWidth=2;verticalLabelPosition=bottom;verticalAlign=top;align=center;outlineConnect=0;" vertex="1" parent="1">
          <mxGeometry x="308.5" y="540" width="101" height="50" as="geometry" />
        </mxCell>
        <mxCell id="6Go6Wf6BIz4FnHkbHVNA-16" value="" style="shape=mxgraph.cisco.switches.layer_2_remote_switch;sketch=0;html=1;pointerEvents=1;dashed=0;fillColor=#036897;strokeColor=#ffffff;strokeWidth=2;verticalLabelPosition=bottom;verticalAlign=top;align=center;outlineConnect=0;" vertex="1" parent="1">
          <mxGeometry x="498" y="540" width="101" height="50" as="geometry" />
        </mxCell>
        <mxCell id="6Go6Wf6BIz4FnHkbHVNA-20" style="edgeStyle=orthogonalEdgeStyle;rounded=0;orthogonalLoop=1;jettySize=auto;html=1;exitX=0.5;exitY=1;exitDx=0;exitDy=0;exitPerimeter=0;verticalAlign=middle;startArrow=classic;startFill=1;" edge="1" parent="1" source="6Go6Wf6BIz4FnHkbHVNA-17" target="6Go6Wf6BIz4FnHkbHVNA-3">
          <mxGeometry relative="1" as="geometry" />
        </mxCell>
        <mxCell id="6Go6Wf6BIz4FnHkbHVNA-17" value="" style="shape=mxgraph.cisco.servers.fileserver;sketch=0;html=1;pointerEvents=1;dashed=0;fillColor=#036897;strokeColor=#ffffff;strokeWidth=2;verticalLabelPosition=bottom;verticalAlign=top;align=center;outlineConnect=0;" vertex="1" parent="1">
          <mxGeometry x="437.5" y="130" width="43" height="62" as="geometry" />
        </mxCell>
        <mxCell id="6Go6Wf6BIz4FnHkbHVNA-19" style="edgeStyle=orthogonalEdgeStyle;rounded=0;orthogonalLoop=1;jettySize=auto;html=1;exitX=0.5;exitY=1;exitDx=0;exitDy=0;exitPerimeter=0;" edge="1" parent="1" source="6Go6Wf6BIz4FnHkbHVNA-17" target="6Go6Wf6BIz4FnHkbHVNA-17">
          <mxGeometry relative="1" as="geometry" />
        </mxCell>
        <mxCell id="6Go6Wf6BIz4FnHkbHVNA-21" value="&lt;font style=&quot;font-size: 24px;&quot;&gt;network architecture diagram&lt;/font&gt;" style="text;html=1;strokeColor=none;fillColor=none;align=center;verticalAlign=middle;whiteSpace=wrap;rounded=0;" vertex="1" parent="1">
          <mxGeometry x="340" width="221" height="30" as="geometry" />
        </mxCell>
      </root>
    </mxGraphModel>
  </diagram>
</mxfile>
